<mxfile host="app.diagrams.net" modified="2024-04-10T22:09:34.154Z" agent="Mozilla/5.0 (Windows NT 10.0; Win64; x64) AppleWebKit/537.36 (KHTML, like Gecko) Chrome/123.0.0.0 Safari/537.36" etag="hE-8nIyRbeC820uy3CTk" version="24.2.2" type="device">
  <diagram id="TdPk6Vj7v9N73TMX8DMW" name="Page-1">
    <mxGraphModel dx="3054" dy="1106" grid="1" gridSize="10" guides="1" tooltips="1" connect="1" arrows="1" fold="1" page="1" pageScale="1" pageWidth="980" pageHeight="1390" math="0" shadow="0">
      <root>
        <mxCell id="0" />
        <mxCell id="1" parent="0" />
        <mxCell id="gfy_0EfbFl2sMV1X142L-1" value="members" style="swimlane;" parent="1" vertex="1">
          <mxGeometry x="140" y="160" width="200" height="200" as="geometry" />
        </mxCell>
        <mxCell id="gfy_0EfbFl2sMV1X142L-2" value="&lt;div style=&quot;text-align: left;&quot;&gt;&lt;span style=&quot;background-color: initial; font-size: 14px;&quot;&gt;&lt;u&gt;id&lt;/u&gt;&lt;/span&gt;&lt;/div&gt;&lt;div style=&quot;text-align: left;&quot;&gt;&lt;span style=&quot;background-color: initial; font-size: 14px;&quot;&gt;user_id&lt;/span&gt;&lt;br&gt;&lt;/div&gt;&lt;div style=&quot;text-align: left;&quot;&gt;&lt;span style=&quot;font-size: 14px;&quot;&gt;gender&lt;/span&gt;&lt;/div&gt;&lt;div style=&quot;text-align: left;&quot;&gt;&lt;span style=&quot;background-color: initial; font-size: 14px;&quot;&gt;birth_date&lt;/span&gt;&lt;br&gt;&lt;/div&gt;&lt;font style=&quot;&quot;&gt;&lt;div style=&quot;text-align: left;&quot;&gt;&lt;span style=&quot;font-size: 14px;&quot;&gt;weight&lt;/span&gt;&lt;/div&gt;&lt;div style=&quot;text-align: left;&quot;&gt;&lt;span style=&quot;font-size: 14px;&quot;&gt;height&lt;/span&gt;&lt;/div&gt;&lt;/font&gt;&lt;div style=&quot;text-align: left;&quot;&gt;&lt;br&gt;&lt;/div&gt;" style="text;html=1;align=center;verticalAlign=middle;resizable=0;points=[];autosize=1;strokeColor=none;fillColor=none;" parent="gfy_0EfbFl2sMV1X142L-1" vertex="1">
          <mxGeometry y="25" width="90" height="130" as="geometry" />
        </mxCell>
        <mxCell id="gfy_0EfbFl2sMV1X142L-3" value="fitness_goal" style="swimlane;" parent="1" vertex="1">
          <mxGeometry x="460" y="160" width="200" height="135" as="geometry" />
        </mxCell>
        <mxCell id="gfy_0EfbFl2sMV1X142L-4" value="&lt;div style=&quot;text-align: left;&quot;&gt;&lt;u style=&quot;font-size: 14px; background-color: initial;&quot;&gt;id&lt;/u&gt;&lt;br&gt;&lt;/div&gt;&lt;div style=&quot;text-align: left;&quot;&gt;&lt;span style=&quot;background-color: initial; font-size: 14px;&quot;&gt;member_id&lt;/span&gt;&lt;u style=&quot;font-size: 14px; background-color: initial;&quot;&gt;&lt;br&gt;&lt;/u&gt;&lt;/div&gt;&lt;font style=&quot;&quot;&gt;&lt;div style=&quot;font-size: 14px; text-align: left;&quot;&gt;goal_text&lt;/div&gt;&lt;div style=&quot;font-size: 14px; text-align: left;&quot;&gt;status&lt;/div&gt;&lt;div style=&quot;font-size: 14px; text-align: left;&quot;&gt;date_created&lt;/div&gt;&lt;/font&gt;&lt;div style=&quot;text-align: left;&quot;&gt;&lt;br&gt;&lt;/div&gt;" style="text;html=1;align=center;verticalAlign=middle;resizable=0;points=[];autosize=1;strokeColor=none;fillColor=none;" parent="gfy_0EfbFl2sMV1X142L-3" vertex="1">
          <mxGeometry x="-10" y="25" width="110" height="110" as="geometry" />
        </mxCell>
        <mxCell id="gfy_0EfbFl2sMV1X142L-43" style="edgeStyle=orthogonalEdgeStyle;rounded=0;orthogonalLoop=1;jettySize=auto;html=1;entryX=0.5;entryY=1;entryDx=0;entryDy=0;endArrow=none;endFill=0;" parent="1" source="gfy_0EfbFl2sMV1X142L-5" target="gfy_0EfbFl2sMV1X142L-27" edge="1">
          <mxGeometry relative="1" as="geometry" />
        </mxCell>
        <mxCell id="gfy_0EfbFl2sMV1X142L-5" value="trainer" style="swimlane;" parent="1" vertex="1">
          <mxGeometry x="140" y="645" width="200" height="125" as="geometry" />
        </mxCell>
        <mxCell id="gfy_0EfbFl2sMV1X142L-6" value="&lt;div style=&quot;text-align: left;&quot;&gt;&lt;u style=&quot;background-color: initial; font-size: 14px;&quot;&gt;id&lt;/u&gt;&lt;br&gt;&lt;/div&gt;&lt;div style=&quot;text-align: left;&quot;&gt;&lt;span style=&quot;font-size: 14px;&quot;&gt;&lt;u&gt;user_id&lt;/u&gt;&lt;/span&gt;&lt;/div&gt;&lt;div style=&quot;text-align: left;&quot;&gt;&lt;span style=&quot;font-size: 14px;&quot;&gt;&lt;u&gt;availability_type&lt;/u&gt;&lt;/span&gt;&lt;/div&gt;&lt;div style=&quot;text-align: left;&quot;&gt;&lt;br&gt;&lt;/div&gt;" style="text;html=1;align=center;verticalAlign=middle;resizable=0;points=[];autosize=1;strokeColor=none;fillColor=none;" parent="gfy_0EfbFl2sMV1X142L-5" vertex="1">
          <mxGeometry y="22.5" width="120" height="80" as="geometry" />
        </mxCell>
        <mxCell id="gfy_0EfbFl2sMV1X142L-7" value="expertise" style="swimlane;" parent="1" vertex="1">
          <mxGeometry x="440" y="645" width="200" height="120" as="geometry" />
        </mxCell>
        <mxCell id="gfy_0EfbFl2sMV1X142L-8" value="&lt;div style=&quot;text-align: left;&quot;&gt;&lt;span style=&quot;font-size: 14px;&quot;&gt;&lt;u&gt;id&lt;/u&gt;&lt;/span&gt;&lt;/div&gt;&lt;div style=&quot;text-align: left;&quot;&gt;&lt;span style=&quot;font-size: 14px;&quot;&gt;trainer_id&lt;/span&gt;&lt;/div&gt;&lt;font style=&quot;&quot;&gt;&lt;div style=&quot;font-size: 14px; text-align: left;&quot;&gt;expertise_name&lt;/div&gt;&lt;div style=&quot;font-size: 14px; text-align: left;&quot;&gt;description&lt;/div&gt;&lt;/font&gt;&lt;div style=&quot;text-align: left;&quot;&gt;&lt;br&gt;&lt;/div&gt;" style="text;html=1;align=center;verticalAlign=middle;resizable=0;points=[];autosize=1;strokeColor=none;fillColor=none;" parent="gfy_0EfbFl2sMV1X142L-7" vertex="1">
          <mxGeometry y="20" width="120" height="100" as="geometry" />
        </mxCell>
        <mxCell id="gfy_0EfbFl2sMV1X142L-11" style="edgeStyle=orthogonalEdgeStyle;rounded=0;orthogonalLoop=1;jettySize=auto;html=1;entryX=0;entryY=0.7;entryDx=0;entryDy=0;entryPerimeter=0;endArrow=none;endFill=0;" parent="1" source="gfy_0EfbFl2sMV1X142L-1" target="gfy_0EfbFl2sMV1X142L-4" edge="1">
          <mxGeometry relative="1" as="geometry">
            <Array as="points">
              <mxPoint x="460" y="260" />
              <mxPoint x="460" y="262" />
            </Array>
          </mxGeometry>
        </mxCell>
        <mxCell id="gfy_0EfbFl2sMV1X142L-12" style="edgeStyle=orthogonalEdgeStyle;rounded=0;orthogonalLoop=1;jettySize=auto;html=1;entryX=0;entryY=0.45;entryDx=0;entryDy=0;entryPerimeter=0;endArrow=none;endFill=0;" parent="1" source="gfy_0EfbFl2sMV1X142L-5" target="gfy_0EfbFl2sMV1X142L-8" edge="1">
          <mxGeometry relative="1" as="geometry">
            <mxPoint x="410" y="740" as="targetPoint" />
            <Array as="points">
              <mxPoint x="390" y="708" />
              <mxPoint x="440" y="708" />
            </Array>
          </mxGeometry>
        </mxCell>
        <mxCell id="gfy_0EfbFl2sMV1X142L-55" style="edgeStyle=orthogonalEdgeStyle;rounded=0;orthogonalLoop=1;jettySize=auto;html=1;entryX=0;entryY=0.25;entryDx=0;entryDy=0;endArrow=none;endFill=0;" parent="1" source="gfy_0EfbFl2sMV1X142L-16" target="gfy_0EfbFl2sMV1X142L-5" edge="1">
          <mxGeometry relative="1" as="geometry" />
        </mxCell>
        <mxCell id="gfy_0EfbFl2sMV1X142L-16" value="users" style="swimlane;" parent="1" vertex="1">
          <mxGeometry x="-150" y="160" width="200" height="200" as="geometry" />
        </mxCell>
        <mxCell id="gfy_0EfbFl2sMV1X142L-17" value="&lt;div style=&quot;text-align: left;&quot;&gt;&lt;u style=&quot;font-size: 14px; background-color: initial;&quot;&gt;id&lt;/u&gt;&lt;/div&gt;&lt;font style=&quot;&quot;&gt;&lt;div style=&quot;font-size: 14px; text-align: left;&quot;&gt;&lt;span style=&quot;background-color: initial;&quot;&gt;username&lt;/span&gt;&lt;/div&gt;&lt;div style=&quot;font-size: 14px; text-align: left;&quot;&gt;&lt;span style=&quot;background-color: initial;&quot;&gt;password&lt;/span&gt;&lt;/div&gt;&lt;div style=&quot;font-size: 14px; text-align: left;&quot;&gt;&lt;span style=&quot;background-color: initial;&quot;&gt;first_name&lt;/span&gt;&lt;/div&gt;&lt;div style=&quot;font-size: 14px; text-align: left;&quot;&gt;&lt;span style=&quot;background-color: initial;&quot;&gt;last_name&lt;/span&gt;&lt;/div&gt;&lt;div style=&quot;font-size: 14px; text-align: left;&quot;&gt;&lt;span style=&quot;background-color: initial;&quot;&gt;email&lt;/span&gt;&lt;/div&gt;&lt;div style=&quot;font-size: 14px; text-align: left;&quot;&gt;&lt;span style=&quot;background-color: initial;&quot;&gt;role&lt;/span&gt;&lt;/div&gt;&lt;/font&gt;&lt;div style=&quot;text-align: left;&quot;&gt;&lt;br&gt;&lt;/div&gt;" style="text;html=1;align=center;verticalAlign=middle;resizable=0;points=[];autosize=1;strokeColor=none;fillColor=none;" parent="gfy_0EfbFl2sMV1X142L-16" vertex="1">
          <mxGeometry y="30" width="90" height="150" as="geometry" />
        </mxCell>
        <mxCell id="8Co_b27BZ8lsY5W0lsWr-8" value="1" style="text;html=1;align=center;verticalAlign=middle;whiteSpace=wrap;rounded=0;" parent="gfy_0EfbFl2sMV1X142L-16" vertex="1">
          <mxGeometry x="-45" y="80" width="60" height="30" as="geometry" />
        </mxCell>
        <mxCell id="gfy_0EfbFl2sMV1X142L-18" value="room" style="swimlane;" parent="1" vertex="1">
          <mxGeometry x="-150" y="410" width="200" height="90" as="geometry" />
        </mxCell>
        <mxCell id="gfy_0EfbFl2sMV1X142L-19" value="&lt;div style=&quot;text-align: left;&quot;&gt;&lt;u style=&quot;font-size: 14px; background-color: initial;&quot;&gt;id&lt;/u&gt;&lt;/div&gt;&lt;font style=&quot;&quot;&gt;&lt;div style=&quot;font-size: 14px; text-align: left;&quot;&gt;&lt;br&gt;&lt;/div&gt;&lt;/font&gt;&lt;div style=&quot;text-align: left;&quot;&gt;&lt;br&gt;&lt;/div&gt;" style="text;html=1;align=center;verticalAlign=middle;resizable=0;points=[];autosize=1;strokeColor=none;fillColor=none;" parent="gfy_0EfbFl2sMV1X142L-18" vertex="1">
          <mxGeometry x="10" y="25" width="30" height="60" as="geometry" />
        </mxCell>
        <mxCell id="gfy_0EfbFl2sMV1X142L-25" style="edgeStyle=orthogonalEdgeStyle;rounded=0;orthogonalLoop=1;jettySize=auto;html=1;endArrow=none;endFill=0;entryX=-0.004;entryY=0.577;entryDx=0;entryDy=0;entryPerimeter=0;" parent="1" source="gfy_0EfbFl2sMV1X142L-16" target="gfy_0EfbFl2sMV1X142L-2" edge="1">
          <mxGeometry relative="1" as="geometry">
            <mxPoint x="135" y="260" as="targetPoint" />
          </mxGeometry>
        </mxCell>
        <mxCell id="gfy_0EfbFl2sMV1X142L-44" style="edgeStyle=orthogonalEdgeStyle;rounded=0;orthogonalLoop=1;jettySize=auto;html=1;endArrow=none;endFill=0;exitX=0.5;exitY=0;exitDx=0;exitDy=0;" parent="1" source="gfy_0EfbFl2sMV1X142L-27" edge="1">
          <mxGeometry relative="1" as="geometry">
            <mxPoint x="240" y="360" as="targetPoint" />
            <Array as="points">
              <mxPoint x="240" y="420" />
              <mxPoint x="240" y="420" />
            </Array>
          </mxGeometry>
        </mxCell>
        <mxCell id="gfy_0EfbFl2sMV1X142L-58" style="edgeStyle=orthogonalEdgeStyle;rounded=0;orthogonalLoop=1;jettySize=auto;html=1;endArrow=none;endFill=0;" parent="1" source="gfy_0EfbFl2sMV1X142L-27" edge="1">
          <mxGeometry relative="1" as="geometry">
            <mxPoint x="440" y="490" as="targetPoint" />
          </mxGeometry>
        </mxCell>
        <mxCell id="AoqOGsLSMnDh2anwQPng-19" style="edgeStyle=orthogonalEdgeStyle;rounded=0;orthogonalLoop=1;jettySize=auto;html=1;entryX=1;entryY=1;entryDx=0;entryDy=0;endArrow=none;endFill=0;" parent="1" source="gfy_0EfbFl2sMV1X142L-27" target="gfy_0EfbFl2sMV1X142L-56" edge="1">
          <mxGeometry relative="1" as="geometry">
            <Array as="points">
              <mxPoint x="190" y="490" />
              <mxPoint x="190" y="436" />
            </Array>
          </mxGeometry>
        </mxCell>
        <mxCell id="AoqOGsLSMnDh2anwQPng-20" style="edgeStyle=orthogonalEdgeStyle;rounded=0;orthogonalLoop=1;jettySize=auto;html=1;endArrow=none;endFill=0;" parent="1" source="gfy_0EfbFl2sMV1X142L-27" target="gfy_0EfbFl2sMV1X142L-35" edge="1">
          <mxGeometry relative="1" as="geometry" />
        </mxCell>
        <mxCell id="AoqOGsLSMnDh2anwQPng-22" style="edgeStyle=orthogonalEdgeStyle;rounded=0;orthogonalLoop=1;jettySize=auto;html=1;entryX=1;entryY=0.5;entryDx=0;entryDy=0;endArrow=none;endFill=0;" parent="1" source="gfy_0EfbFl2sMV1X142L-27" target="gfy_0EfbFl2sMV1X142L-30" edge="1">
          <mxGeometry relative="1" as="geometry">
            <Array as="points">
              <mxPoint x="190" y="490" />
            </Array>
          </mxGeometry>
        </mxCell>
        <mxCell id="gfy_0EfbFl2sMV1X142L-27" value="trains" style="rhombus;whiteSpace=wrap;html=1;" parent="1" vertex="1">
          <mxGeometry x="200" y="450" width="80" height="80" as="geometry" />
        </mxCell>
        <mxCell id="gfy_0EfbFl2sMV1X142L-30" value="room_id" style="ellipse;whiteSpace=wrap;html=1;" parent="1" vertex="1">
          <mxGeometry x="110" y="560" width="80" height="30" as="geometry" />
        </mxCell>
        <mxCell id="gfy_0EfbFl2sMV1X142L-33" value="availability_id" style="ellipse;whiteSpace=wrap;html=1;" parent="1" vertex="1">
          <mxGeometry x="100" y="520" width="80" height="30" as="geometry" />
        </mxCell>
        <mxCell id="gfy_0EfbFl2sMV1X142L-35" value="&lt;u&gt;id&lt;/u&gt;" style="ellipse;whiteSpace=wrap;html=1;" parent="1" vertex="1">
          <mxGeometry x="100" y="470" width="80" height="30" as="geometry" />
        </mxCell>
        <mxCell id="gfy_0EfbFl2sMV1X142L-38" value="exercise_routine" style="swimlane;" parent="1" vertex="1">
          <mxGeometry x="460" y="20" width="200" height="130" as="geometry" />
        </mxCell>
        <mxCell id="gfy_0EfbFl2sMV1X142L-39" value="&lt;div style=&quot;text-align: left;&quot;&gt;&lt;u style=&quot;font-size: 14px; background-color: initial;&quot;&gt;id&lt;/u&gt;&lt;/div&gt;&lt;div style=&quot;text-align: left;&quot;&gt;&lt;span style=&quot;font-size: 14px; background-color: initial;&quot;&gt;member_id&lt;/span&gt;&lt;/div&gt;&lt;font style=&quot;&quot;&gt;&lt;div style=&quot;font-size: 14px; text-align: left;&quot;&gt;description&lt;/div&gt;&lt;div style=&quot;font-size: 14px; text-align: left;&quot;&gt;&lt;br&gt;&lt;/div&gt;&lt;/font&gt;&lt;div style=&quot;text-align: left;&quot;&gt;&lt;br&gt;&lt;/div&gt;" style="text;html=1;align=center;verticalAlign=middle;resizable=0;points=[];autosize=1;strokeColor=none;fillColor=none;" parent="gfy_0EfbFl2sMV1X142L-38" vertex="1">
          <mxGeometry y="30" width="90" height="100" as="geometry" />
        </mxCell>
        <mxCell id="gfy_0EfbFl2sMV1X142L-40" style="edgeStyle=orthogonalEdgeStyle;rounded=0;orthogonalLoop=1;jettySize=auto;html=1;entryX=0.011;entryY=0.5;entryDx=0;entryDy=0;entryPerimeter=0;endArrow=none;endFill=0;" parent="1" source="gfy_0EfbFl2sMV1X142L-1" target="gfy_0EfbFl2sMV1X142L-39" edge="1">
          <mxGeometry relative="1" as="geometry" />
        </mxCell>
        <mxCell id="gfy_0EfbFl2sMV1X142L-41" value="attendee" style="swimlane;" parent="1" vertex="1">
          <mxGeometry x="440" y="450" width="200" height="100" as="geometry" />
        </mxCell>
        <mxCell id="gfy_0EfbFl2sMV1X142L-42" value="&lt;div style=&quot;text-align: left;&quot;&gt;&lt;u style=&quot;font-size: 14px; background-color: initial;&quot;&gt;member_id&lt;/u&gt;&lt;/div&gt;&lt;font style=&quot;&quot;&gt;&lt;div style=&quot;font-size: 14px; text-align: left;&quot;&gt;&lt;u&gt;training_session_id&lt;/u&gt;&lt;/div&gt;&lt;div style=&quot;font-size: 14px; text-align: left;&quot;&gt;&lt;br&gt;&lt;/div&gt;&lt;/font&gt;&lt;div style=&quot;text-align: left;&quot;&gt;&lt;br&gt;&lt;/div&gt;" style="text;html=1;align=center;verticalAlign=middle;resizable=0;points=[];autosize=1;strokeColor=none;fillColor=none;" parent="gfy_0EfbFl2sMV1X142L-41" vertex="1">
          <mxGeometry x="5" y="35" width="140" height="80" as="geometry" />
        </mxCell>
        <mxCell id="gfy_0EfbFl2sMV1X142L-45" value="n" style="text;html=1;align=center;verticalAlign=middle;whiteSpace=wrap;rounded=0;" parent="1" vertex="1">
          <mxGeometry x="220" y="620" width="60" height="30" as="geometry" />
        </mxCell>
        <mxCell id="gfy_0EfbFl2sMV1X142L-46" value="n" style="text;html=1;align=center;verticalAlign=middle;whiteSpace=wrap;rounded=0;" parent="1" vertex="1">
          <mxGeometry x="222.5" y="360" width="60" height="30" as="geometry" />
        </mxCell>
        <mxCell id="gfy_0EfbFl2sMV1X142L-47" value="1" style="text;html=1;align=center;verticalAlign=middle;whiteSpace=wrap;rounded=0;" parent="1" vertex="1">
          <mxGeometry x="100" y="230" width="60" height="30" as="geometry" />
        </mxCell>
        <mxCell id="gfy_0EfbFl2sMV1X142L-48" value="1" style="text;html=1;align=center;verticalAlign=middle;whiteSpace=wrap;rounded=0;" parent="1" vertex="1">
          <mxGeometry x="30" y="230" width="60" height="30" as="geometry" />
        </mxCell>
        <mxCell id="gfy_0EfbFl2sMV1X142L-49" value="1" style="text;html=1;align=center;verticalAlign=middle;whiteSpace=wrap;rounded=0;" parent="1" vertex="1">
          <mxGeometry x="100" y="640" width="60" height="30" as="geometry" />
        </mxCell>
        <mxCell id="gfy_0EfbFl2sMV1X142L-50" value="1" style="text;html=1;align=center;verticalAlign=middle;whiteSpace=wrap;rounded=0;" parent="1" vertex="1">
          <mxGeometry x="320" y="230" width="60" height="30" as="geometry" />
        </mxCell>
        <mxCell id="gfy_0EfbFl2sMV1X142L-51" value="n" style="text;html=1;align=center;verticalAlign=middle;whiteSpace=wrap;rounded=0;" parent="1" vertex="1">
          <mxGeometry x="420" y="230" width="60" height="30" as="geometry" />
        </mxCell>
        <mxCell id="gfy_0EfbFl2sMV1X142L-52" value="n" style="text;html=1;align=center;verticalAlign=middle;whiteSpace=wrap;rounded=0;" parent="1" vertex="1">
          <mxGeometry x="410" y="60" width="60" height="30" as="geometry" />
        </mxCell>
        <mxCell id="gfy_0EfbFl2sMV1X142L-53" value="1" style="text;html=1;align=center;verticalAlign=middle;whiteSpace=wrap;rounded=0;" parent="1" vertex="1">
          <mxGeometry x="320" y="680" width="60" height="30" as="geometry" />
        </mxCell>
        <mxCell id="gfy_0EfbFl2sMV1X142L-54" value="n" style="text;html=1;align=center;verticalAlign=middle;whiteSpace=wrap;rounded=0;" parent="1" vertex="1">
          <mxGeometry x="400" y="680" width="60" height="30" as="geometry" />
        </mxCell>
        <mxCell id="gfy_0EfbFl2sMV1X142L-56" value="trainer_id" style="ellipse;whiteSpace=wrap;html=1;" parent="1" vertex="1">
          <mxGeometry x="110" y="410" width="80" height="30" as="geometry" />
        </mxCell>
        <mxCell id="gfy_0EfbFl2sMV1X142L-59" value="n" style="text;html=1;align=center;verticalAlign=middle;whiteSpace=wrap;rounded=0;" parent="1" vertex="1">
          <mxGeometry x="400" y="460" width="60" height="30" as="geometry" />
        </mxCell>
        <mxCell id="gfy_0EfbFl2sMV1X142L-60" value="1" style="text;html=1;align=center;verticalAlign=middle;whiteSpace=wrap;rounded=0;" parent="1" vertex="1">
          <mxGeometry x="260" y="460" width="60" height="30" as="geometry" />
        </mxCell>
        <mxCell id="gfy_0EfbFl2sMV1X142L-61" value="" style="shape=table;startSize=0;container=1;collapsible=0;childLayout=tableLayout;fontSize=16;" parent="1" vertex="1">
          <mxGeometry x="-275" y="1150" width="550" height="40" as="geometry" />
        </mxCell>
        <mxCell id="gfy_0EfbFl2sMV1X142L-66" value="" style="shape=tableRow;horizontal=0;startSize=0;swimlaneHead=0;swimlaneBody=0;strokeColor=inherit;top=0;left=0;bottom=0;right=0;collapsible=0;dropTarget=0;fillColor=none;points=[[0,0.5],[1,0.5]];portConstraint=eastwest;fontSize=16;" parent="gfy_0EfbFl2sMV1X142L-61" vertex="1">
          <mxGeometry width="550" height="40" as="geometry" />
        </mxCell>
        <mxCell id="gfy_0EfbFl2sMV1X142L-67" value="&lt;u&gt;id&lt;/u&gt;" style="shape=partialRectangle;html=1;whiteSpace=wrap;connectable=0;strokeColor=inherit;overflow=hidden;fillColor=none;top=0;left=0;bottom=0;right=0;pointerEvents=1;fontSize=16;" parent="gfy_0EfbFl2sMV1X142L-66" vertex="1">
          <mxGeometry width="60" height="40" as="geometry">
            <mxRectangle width="60" height="40" as="alternateBounds" />
          </mxGeometry>
        </mxCell>
        <mxCell id="gfy_0EfbFl2sMV1X142L-68" value="username&lt;span style=&quot;white-space: pre;&quot;&gt;&#x9;&lt;/span&gt;" style="shape=partialRectangle;html=1;whiteSpace=wrap;connectable=0;strokeColor=inherit;overflow=hidden;fillColor=none;top=0;left=0;bottom=0;right=0;pointerEvents=1;fontSize=16;" parent="gfy_0EfbFl2sMV1X142L-66" vertex="1">
          <mxGeometry x="60" width="100" height="40" as="geometry">
            <mxRectangle width="100" height="40" as="alternateBounds" />
          </mxGeometry>
        </mxCell>
        <mxCell id="gfy_0EfbFl2sMV1X142L-69" value="password&lt;span style=&quot;white-space: pre;&quot;&gt;&#x9;&lt;/span&gt;" style="shape=partialRectangle;html=1;whiteSpace=wrap;connectable=0;strokeColor=inherit;overflow=hidden;fillColor=none;top=0;left=0;bottom=0;right=0;pointerEvents=1;fontSize=16;" parent="gfy_0EfbFl2sMV1X142L-66" vertex="1">
          <mxGeometry x="160" width="90" height="40" as="geometry">
            <mxRectangle width="90" height="40" as="alternateBounds" />
          </mxGeometry>
        </mxCell>
        <mxCell id="gfy_0EfbFl2sMV1X142L-75" value="first_name" style="shape=partialRectangle;html=1;whiteSpace=wrap;connectable=0;strokeColor=inherit;overflow=hidden;fillColor=none;top=0;left=0;bottom=0;right=0;pointerEvents=1;fontSize=16;" parent="gfy_0EfbFl2sMV1X142L-66" vertex="1">
          <mxGeometry x="250" width="90" height="40" as="geometry">
            <mxRectangle width="90" height="40" as="alternateBounds" />
          </mxGeometry>
        </mxCell>
        <mxCell id="gfy_0EfbFl2sMV1X142L-77" value="last_name" style="shape=partialRectangle;html=1;whiteSpace=wrap;connectable=0;strokeColor=inherit;overflow=hidden;fillColor=none;top=0;left=0;bottom=0;right=0;pointerEvents=1;fontSize=16;" parent="gfy_0EfbFl2sMV1X142L-66" vertex="1">
          <mxGeometry x="340" width="100" height="40" as="geometry">
            <mxRectangle width="100" height="40" as="alternateBounds" />
          </mxGeometry>
        </mxCell>
        <mxCell id="gfy_0EfbFl2sMV1X142L-78" value="email" style="shape=partialRectangle;html=1;whiteSpace=wrap;connectable=0;strokeColor=inherit;overflow=hidden;fillColor=none;top=0;left=0;bottom=0;right=0;pointerEvents=1;fontSize=16;" parent="gfy_0EfbFl2sMV1X142L-66" vertex="1">
          <mxGeometry x="440" width="60" height="40" as="geometry">
            <mxRectangle width="60" height="40" as="alternateBounds" />
          </mxGeometry>
        </mxCell>
        <mxCell id="gfy_0EfbFl2sMV1X142L-79" value="role" style="shape=partialRectangle;html=1;whiteSpace=wrap;connectable=0;strokeColor=inherit;overflow=hidden;fillColor=none;top=0;left=0;bottom=0;right=0;pointerEvents=1;fontSize=16;" parent="gfy_0EfbFl2sMV1X142L-66" vertex="1">
          <mxGeometry x="500" width="50" height="40" as="geometry">
            <mxRectangle width="50" height="40" as="alternateBounds" />
          </mxGeometry>
        </mxCell>
        <mxCell id="gfy_0EfbFl2sMV1X142L-74" value="" style="shape=partialRectangle;html=1;whiteSpace=wrap;connectable=0;strokeColor=inherit;overflow=hidden;fillColor=none;top=0;left=0;bottom=0;right=0;pointerEvents=1;fontSize=16;" parent="1" vertex="1">
          <mxGeometry x="-80" y="1200" width="60" height="40" as="geometry">
            <mxRectangle width="60" height="40" as="alternateBounds" />
          </mxGeometry>
        </mxCell>
        <mxCell id="gfy_0EfbFl2sMV1X142L-80" value="&lt;font style=&quot;font-size: 17px;&quot;&gt;&lt;b&gt;users&lt;/b&gt;&lt;/font&gt;" style="text;html=1;align=center;verticalAlign=middle;whiteSpace=wrap;rounded=0;" parent="1" vertex="1">
          <mxGeometry x="-340" y="1155" width="60" height="30" as="geometry" />
        </mxCell>
        <mxCell id="gfy_0EfbFl2sMV1X142L-81" value="&lt;font style=&quot;font-size: 17px;&quot;&gt;&lt;b&gt;members&lt;/b&gt;&lt;/font&gt;" style="text;html=1;align=center;verticalAlign=middle;whiteSpace=wrap;rounded=0;" parent="1" vertex="1">
          <mxGeometry x="-350" y="1235" width="60" height="30" as="geometry" />
        </mxCell>
        <mxCell id="gfy_0EfbFl2sMV1X142L-82" value="" style="shape=table;startSize=0;container=1;collapsible=0;childLayout=tableLayout;fontSize=16;" parent="1" vertex="1">
          <mxGeometry x="-275" y="1230" width="485" height="40" as="geometry" />
        </mxCell>
        <mxCell id="gfy_0EfbFl2sMV1X142L-83" value="" style="shape=tableRow;horizontal=0;startSize=0;swimlaneHead=0;swimlaneBody=0;strokeColor=inherit;top=0;left=0;bottom=0;right=0;collapsible=0;dropTarget=0;fillColor=none;points=[[0,0.5],[1,0.5]];portConstraint=eastwest;fontSize=16;" parent="gfy_0EfbFl2sMV1X142L-82" vertex="1">
          <mxGeometry width="485" height="40" as="geometry" />
        </mxCell>
        <mxCell id="gfy_0EfbFl2sMV1X142L-84" value="user_id" style="shape=partialRectangle;html=1;whiteSpace=wrap;connectable=0;strokeColor=inherit;overflow=hidden;fillColor=none;top=0;left=0;bottom=0;right=0;pointerEvents=1;fontSize=16;" parent="gfy_0EfbFl2sMV1X142L-83" vertex="1">
          <mxGeometry width="85" height="40" as="geometry">
            <mxRectangle width="85" height="40" as="alternateBounds" />
          </mxGeometry>
        </mxCell>
        <mxCell id="gfy_0EfbFl2sMV1X142L-85" value="&lt;u&gt;id&lt;/u&gt;" style="shape=partialRectangle;html=1;whiteSpace=wrap;connectable=0;strokeColor=inherit;overflow=hidden;fillColor=none;top=0;left=0;bottom=0;right=0;pointerEvents=1;fontSize=16;" parent="gfy_0EfbFl2sMV1X142L-83" vertex="1">
          <mxGeometry x="85" width="50" height="40" as="geometry">
            <mxRectangle width="50" height="40" as="alternateBounds" />
          </mxGeometry>
        </mxCell>
        <mxCell id="gfy_0EfbFl2sMV1X142L-86" value="gender" style="shape=partialRectangle;html=1;whiteSpace=wrap;connectable=0;strokeColor=inherit;overflow=hidden;fillColor=none;top=0;left=0;bottom=0;right=0;pointerEvents=1;fontSize=16;" parent="gfy_0EfbFl2sMV1X142L-83" vertex="1">
          <mxGeometry x="135" width="80" height="40" as="geometry">
            <mxRectangle width="80" height="40" as="alternateBounds" />
          </mxGeometry>
        </mxCell>
        <mxCell id="gfy_0EfbFl2sMV1X142L-87" value="date_of_birth&lt;span style=&quot;white-space: pre;&quot;&gt;&#x9;&lt;/span&gt;" style="shape=partialRectangle;html=1;whiteSpace=wrap;connectable=0;strokeColor=inherit;overflow=hidden;fillColor=none;top=0;left=0;bottom=0;right=0;pointerEvents=1;fontSize=16;" parent="gfy_0EfbFl2sMV1X142L-83" vertex="1">
          <mxGeometry x="215" width="120" height="40" as="geometry">
            <mxRectangle width="120" height="40" as="alternateBounds" />
          </mxGeometry>
        </mxCell>
        <mxCell id="gfy_0EfbFl2sMV1X142L-88" value="weight" style="shape=partialRectangle;html=1;whiteSpace=wrap;connectable=0;strokeColor=inherit;overflow=hidden;fillColor=none;top=0;left=0;bottom=0;right=0;pointerEvents=1;fontSize=16;" parent="gfy_0EfbFl2sMV1X142L-83" vertex="1">
          <mxGeometry x="335" width="80" height="40" as="geometry">
            <mxRectangle width="80" height="40" as="alternateBounds" />
          </mxGeometry>
        </mxCell>
        <mxCell id="gfy_0EfbFl2sMV1X142L-89" value="height" style="shape=partialRectangle;html=1;whiteSpace=wrap;connectable=0;strokeColor=inherit;overflow=hidden;fillColor=none;top=0;left=0;bottom=0;right=0;pointerEvents=1;fontSize=16;" parent="gfy_0EfbFl2sMV1X142L-83" vertex="1">
          <mxGeometry x="415" width="70" height="40" as="geometry">
            <mxRectangle width="70" height="40" as="alternateBounds" />
          </mxGeometry>
        </mxCell>
        <mxCell id="gfy_0EfbFl2sMV1X142L-91" value="&lt;font style=&quot;font-size: 17px;&quot;&gt;&lt;b&gt;trainer&lt;/b&gt;&lt;/font&gt;" style="text;html=1;align=center;verticalAlign=middle;whiteSpace=wrap;rounded=0;" parent="1" vertex="1">
          <mxGeometry x="-350" y="1075" width="60" height="30" as="geometry" />
        </mxCell>
        <mxCell id="gfy_0EfbFl2sMV1X142L-92" value="" style="shape=table;startSize=0;container=1;collapsible=0;childLayout=tableLayout;fontSize=16;" parent="1" vertex="1">
          <mxGeometry x="-275" y="1070" width="255" height="40" as="geometry" />
        </mxCell>
        <mxCell id="gfy_0EfbFl2sMV1X142L-93" value="" style="shape=tableRow;horizontal=0;startSize=0;swimlaneHead=0;swimlaneBody=0;strokeColor=inherit;top=0;left=0;bottom=0;right=0;collapsible=0;dropTarget=0;fillColor=none;points=[[0,0.5],[1,0.5]];portConstraint=eastwest;fontSize=16;" parent="gfy_0EfbFl2sMV1X142L-92" vertex="1">
          <mxGeometry width="255" height="40" as="geometry" />
        </mxCell>
        <mxCell id="gfy_0EfbFl2sMV1X142L-94" value="user_id" style="shape=partialRectangle;html=1;whiteSpace=wrap;connectable=0;strokeColor=inherit;overflow=hidden;fillColor=none;top=0;left=0;bottom=0;right=0;pointerEvents=1;fontSize=16;" parent="gfy_0EfbFl2sMV1X142L-93" vertex="1">
          <mxGeometry width="85" height="40" as="geometry">
            <mxRectangle width="85" height="40" as="alternateBounds" />
          </mxGeometry>
        </mxCell>
        <mxCell id="gfy_0EfbFl2sMV1X142L-95" value="&lt;u&gt;id&lt;/u&gt;" style="shape=partialRectangle;html=1;whiteSpace=wrap;connectable=0;strokeColor=inherit;overflow=hidden;fillColor=none;top=0;left=0;bottom=0;right=0;pointerEvents=1;fontSize=16;" parent="gfy_0EfbFl2sMV1X142L-93" vertex="1">
          <mxGeometry x="85" width="50" height="40" as="geometry">
            <mxRectangle width="50" height="40" as="alternateBounds" />
          </mxGeometry>
        </mxCell>
        <mxCell id="gfy_0EfbFl2sMV1X142L-96" value="availability_type" style="shape=partialRectangle;html=1;whiteSpace=wrap;connectable=0;strokeColor=inherit;overflow=hidden;fillColor=none;top=0;left=0;bottom=0;right=0;pointerEvents=1;fontSize=16;" parent="gfy_0EfbFl2sMV1X142L-93" vertex="1">
          <mxGeometry x="135" width="120" height="40" as="geometry">
            <mxRectangle width="120" height="40" as="alternateBounds" />
          </mxGeometry>
        </mxCell>
        <mxCell id="gfy_0EfbFl2sMV1X142L-101" value="" style="endArrow=classic;html=1;rounded=0;entryX=0.2;entryY=1.075;entryDx=0;entryDy=0;entryPerimeter=0;" parent="1" target="gfy_0EfbFl2sMV1X142L-93" edge="1">
          <mxGeometry width="50" height="50" relative="1" as="geometry">
            <mxPoint x="-240" y="1150" as="sourcePoint" />
            <mxPoint x="-190" y="1100" as="targetPoint" />
          </mxGeometry>
        </mxCell>
        <mxCell id="gfy_0EfbFl2sMV1X142L-102" value="" style="endArrow=classic;html=1;rounded=0;entryX=0.073;entryY=-0.075;entryDx=0;entryDy=0;entryPerimeter=0;" parent="1" target="gfy_0EfbFl2sMV1X142L-83" edge="1">
          <mxGeometry width="50" height="50" relative="1" as="geometry">
            <mxPoint x="-240" y="1190" as="sourcePoint" />
            <mxPoint x="-190" y="1140" as="targetPoint" />
          </mxGeometry>
        </mxCell>
        <mxCell id="gfy_0EfbFl2sMV1X142L-103" value="&lt;font style=&quot;font-size: 17px;&quot;&gt;&lt;b&gt;trains&lt;/b&gt;&lt;/font&gt;" style="text;html=1;align=center;verticalAlign=middle;whiteSpace=wrap;rounded=0;" parent="1" vertex="1">
          <mxGeometry x="-350" y="995" width="60" height="30" as="geometry" />
        </mxCell>
        <mxCell id="gfy_0EfbFl2sMV1X142L-104" value="" style="shape=table;startSize=0;container=1;collapsible=0;childLayout=tableLayout;fontSize=16;" parent="1" vertex="1">
          <mxGeometry x="-280" y="990" width="490" height="40" as="geometry" />
        </mxCell>
        <mxCell id="gfy_0EfbFl2sMV1X142L-105" value="" style="shape=tableRow;horizontal=0;startSize=0;swimlaneHead=0;swimlaneBody=0;strokeColor=inherit;top=0;left=0;bottom=0;right=0;collapsible=0;dropTarget=0;fillColor=none;points=[[0,0.5],[1,0.5]];portConstraint=eastwest;" parent="gfy_0EfbFl2sMV1X142L-104" vertex="1">
          <mxGeometry width="490" height="40" as="geometry" />
        </mxCell>
        <mxCell id="gfy_0EfbFl2sMV1X142L-113" value="&lt;u&gt;id&lt;/u&gt;" style="shape=partialRectangle;html=1;whiteSpace=wrap;connectable=0;strokeColor=inherit;overflow=hidden;fillColor=none;top=0;left=0;bottom=0;right=0;pointerEvents=1;fontSize=16;" parent="gfy_0EfbFl2sMV1X142L-105" vertex="1">
          <mxGeometry width="75" height="40" as="geometry">
            <mxRectangle width="75" height="40" as="alternateBounds" />
          </mxGeometry>
        </mxCell>
        <mxCell id="gfy_0EfbFl2sMV1X142L-106" value="trainer_id" style="shape=partialRectangle;html=1;whiteSpace=wrap;connectable=0;strokeColor=inherit;overflow=hidden;fillColor=none;top=0;left=0;bottom=0;right=0;pointerEvents=1;fontSize=16;" parent="gfy_0EfbFl2sMV1X142L-105" vertex="1">
          <mxGeometry x="75" width="100" height="40" as="geometry">
            <mxRectangle width="100" height="40" as="alternateBounds" />
          </mxGeometry>
        </mxCell>
        <mxCell id="gfy_0EfbFl2sMV1X142L-108" value="room_id" style="shape=partialRectangle;html=1;whiteSpace=wrap;connectable=0;strokeColor=inherit;overflow=hidden;fillColor=none;top=0;left=0;bottom=0;right=0;pointerEvents=1;fontSize=16;" parent="gfy_0EfbFl2sMV1X142L-105" vertex="1">
          <mxGeometry x="175" width="115" height="40" as="geometry">
            <mxRectangle width="115" height="40" as="alternateBounds" />
          </mxGeometry>
        </mxCell>
        <mxCell id="gfy_0EfbFl2sMV1X142L-109" value="availability_id" style="shape=partialRectangle;html=1;whiteSpace=wrap;connectable=0;strokeColor=inherit;overflow=hidden;fillColor=none;top=0;left=0;bottom=0;right=0;pointerEvents=1;fontSize=16;" parent="gfy_0EfbFl2sMV1X142L-105" vertex="1">
          <mxGeometry x="290" width="200" height="40" as="geometry">
            <mxRectangle width="200" height="40" as="alternateBounds" />
          </mxGeometry>
        </mxCell>
        <mxCell id="gfy_0EfbFl2sMV1X142L-123" value="" style="endArrow=classic;html=1;rounded=0;entryX=0.255;entryY=1.084;entryDx=0;entryDy=0;entryPerimeter=0;" parent="1" target="gfy_0EfbFl2sMV1X142L-105" edge="1">
          <mxGeometry width="50" height="50" relative="1" as="geometry">
            <mxPoint x="-160" y="1070" as="sourcePoint" />
            <mxPoint x="-110" y="1020" as="targetPoint" />
          </mxGeometry>
        </mxCell>
        <mxCell id="gfy_0EfbFl2sMV1X142L-124" value="&lt;font style=&quot;font-size: 17px;&quot;&gt;&lt;b&gt;room&lt;/b&gt;&lt;/font&gt;" style="text;html=1;align=center;verticalAlign=middle;whiteSpace=wrap;rounded=0;" parent="1" vertex="1">
          <mxGeometry x="-100" y="920" width="60" height="30" as="geometry" />
        </mxCell>
        <mxCell id="gfy_0EfbFl2sMV1X142L-125" value="" style="shape=table;startSize=0;container=1;collapsible=0;childLayout=tableLayout;fontSize=16;" parent="1" vertex="1">
          <mxGeometry x="-40" y="915" width="50" height="40" as="geometry" />
        </mxCell>
        <mxCell id="gfy_0EfbFl2sMV1X142L-126" value="" style="shape=tableRow;horizontal=0;startSize=0;swimlaneHead=0;swimlaneBody=0;strokeColor=inherit;top=0;left=0;bottom=0;right=0;collapsible=0;dropTarget=0;fillColor=none;points=[[0,0.5],[1,0.5]];portConstraint=eastwest;fontSize=16;" parent="gfy_0EfbFl2sMV1X142L-125" vertex="1">
          <mxGeometry width="50" height="40" as="geometry" />
        </mxCell>
        <mxCell id="gfy_0EfbFl2sMV1X142L-128" value="&lt;u&gt;id&lt;/u&gt;" style="shape=partialRectangle;html=1;whiteSpace=wrap;connectable=0;strokeColor=inherit;overflow=hidden;fillColor=none;top=0;left=0;bottom=0;right=0;pointerEvents=1;fontSize=16;" parent="gfy_0EfbFl2sMV1X142L-126" vertex="1">
          <mxGeometry width="50" height="40" as="geometry">
            <mxRectangle width="50" height="40" as="alternateBounds" />
          </mxGeometry>
        </mxCell>
        <mxCell id="gfy_0EfbFl2sMV1X142L-130" value="&lt;font style=&quot;font-size: 17px;&quot;&gt;&lt;b&gt;attendee&lt;/b&gt;&lt;/font&gt;" style="text;html=1;align=center;verticalAlign=middle;whiteSpace=wrap;rounded=0;" parent="1" vertex="1">
          <mxGeometry x="-610" y="915" width="60" height="30" as="geometry" />
        </mxCell>
        <mxCell id="gfy_0EfbFl2sMV1X142L-131" value="" style="shape=table;startSize=0;container=1;collapsible=0;childLayout=tableLayout;fontSize=16;" parent="1" vertex="1">
          <mxGeometry x="-530" y="910" width="310" height="40" as="geometry" />
        </mxCell>
        <mxCell id="gfy_0EfbFl2sMV1X142L-132" value="" style="shape=tableRow;horizontal=0;startSize=0;swimlaneHead=0;swimlaneBody=0;strokeColor=inherit;top=0;left=0;bottom=0;right=0;collapsible=0;dropTarget=0;fillColor=none;points=[[0,0.5],[1,0.5]];portConstraint=eastwest;fontSize=16;" parent="gfy_0EfbFl2sMV1X142L-131" vertex="1">
          <mxGeometry width="310" height="40" as="geometry" />
        </mxCell>
        <mxCell id="gfy_0EfbFl2sMV1X142L-133" value="&lt;u&gt;training_session_id&lt;/u&gt;" style="shape=partialRectangle;html=1;whiteSpace=wrap;connectable=0;strokeColor=inherit;overflow=hidden;fillColor=none;top=0;left=0;bottom=0;right=0;pointerEvents=1;fontSize=16;" parent="gfy_0EfbFl2sMV1X142L-132" vertex="1">
          <mxGeometry width="160" height="40" as="geometry">
            <mxRectangle width="160" height="40" as="alternateBounds" />
          </mxGeometry>
        </mxCell>
        <mxCell id="gfy_0EfbFl2sMV1X142L-136" value="&lt;u&gt;member_id&lt;/u&gt;" style="shape=partialRectangle;html=1;whiteSpace=wrap;connectable=0;strokeColor=inherit;overflow=hidden;fillColor=none;top=0;left=0;bottom=0;right=0;pointerEvents=1;fontSize=16;" parent="gfy_0EfbFl2sMV1X142L-132" vertex="1">
          <mxGeometry x="160" width="150" height="40" as="geometry">
            <mxRectangle width="150" height="40" as="alternateBounds" />
          </mxGeometry>
        </mxCell>
        <mxCell id="gfy_0EfbFl2sMV1X142L-137" style="edgeStyle=orthogonalEdgeStyle;rounded=0;orthogonalLoop=1;jettySize=auto;html=1;entryX=0.537;entryY=0.008;entryDx=0;entryDy=0;entryPerimeter=0;" parent="1" source="gfy_0EfbFl2sMV1X142L-125" target="gfy_0EfbFl2sMV1X142L-105" edge="1">
          <mxGeometry relative="1" as="geometry" />
        </mxCell>
        <mxCell id="gfy_0EfbFl2sMV1X142L-138" value="" style="endArrow=classic;html=1;rounded=0;entryX=0.257;entryY=0.988;entryDx=0;entryDy=0;entryPerimeter=0;exitX=0.084;exitY=-0.033;exitDx=0;exitDy=0;exitPerimeter=0;" parent="1" source="gfy_0EfbFl2sMV1X142L-105" target="gfy_0EfbFl2sMV1X142L-132" edge="1">
          <mxGeometry width="50" height="50" relative="1" as="geometry">
            <mxPoint x="-230" y="1160" as="sourcePoint" />
            <mxPoint x="-222" y="1123" as="targetPoint" />
          </mxGeometry>
        </mxCell>
        <mxCell id="gfy_0EfbFl2sMV1X142L-146" value="" style="shape=partialRectangle;html=1;whiteSpace=wrap;connectable=0;strokeColor=inherit;overflow=hidden;fillColor=none;top=0;left=0;bottom=0;right=0;pointerEvents=1;fontSize=16;" parent="1" vertex="1">
          <mxGeometry x="-85" y="1270" width="60" height="40" as="geometry">
            <mxRectangle width="60" height="40" as="alternateBounds" />
          </mxGeometry>
        </mxCell>
        <mxCell id="gfy_0EfbFl2sMV1X142L-147" value="&lt;span style=&quot;font-size: 17px;&quot;&gt;&lt;b&gt;fitness_goal&lt;/b&gt;&lt;/span&gt;" style="text;html=1;align=center;verticalAlign=middle;whiteSpace=wrap;rounded=0;" parent="1" vertex="1">
          <mxGeometry x="-650" y="1335" width="60" height="30" as="geometry" />
        </mxCell>
        <mxCell id="gfy_0EfbFl2sMV1X142L-148" value="" style="shape=table;startSize=0;container=1;collapsible=0;childLayout=tableLayout;fontSize=16;" parent="1" vertex="1">
          <mxGeometry x="-565" y="1330" width="515" height="40" as="geometry" />
        </mxCell>
        <mxCell id="gfy_0EfbFl2sMV1X142L-149" value="" style="shape=tableRow;horizontal=0;startSize=0;swimlaneHead=0;swimlaneBody=0;strokeColor=inherit;top=0;left=0;bottom=0;right=0;collapsible=0;dropTarget=0;fillColor=none;points=[[0,0.5],[1,0.5]];portConstraint=eastwest;fontSize=16;" parent="gfy_0EfbFl2sMV1X142L-148" vertex="1">
          <mxGeometry width="515" height="40" as="geometry" />
        </mxCell>
        <mxCell id="gfy_0EfbFl2sMV1X142L-150" value="member_id" style="shape=partialRectangle;html=1;whiteSpace=wrap;connectable=0;strokeColor=inherit;overflow=hidden;fillColor=none;top=0;left=0;bottom=0;right=0;pointerEvents=1;fontSize=16;" parent="gfy_0EfbFl2sMV1X142L-149" vertex="1">
          <mxGeometry width="95" height="40" as="geometry">
            <mxRectangle width="95" height="40" as="alternateBounds" />
          </mxGeometry>
        </mxCell>
        <mxCell id="gfy_0EfbFl2sMV1X142L-151" value="&lt;u&gt;id&lt;/u&gt;" style="shape=partialRectangle;html=1;whiteSpace=wrap;connectable=0;strokeColor=inherit;overflow=hidden;fillColor=none;top=0;left=0;bottom=0;right=0;pointerEvents=1;fontSize=16;" parent="gfy_0EfbFl2sMV1X142L-149" vertex="1">
          <mxGeometry x="95" width="60" height="40" as="geometry">
            <mxRectangle width="60" height="40" as="alternateBounds" />
          </mxGeometry>
        </mxCell>
        <mxCell id="gfy_0EfbFl2sMV1X142L-152" value="goal_text" style="shape=partialRectangle;html=1;whiteSpace=wrap;connectable=0;strokeColor=inherit;overflow=hidden;fillColor=none;top=0;left=0;bottom=0;right=0;pointerEvents=1;fontSize=16;" parent="gfy_0EfbFl2sMV1X142L-149" vertex="1">
          <mxGeometry x="155" width="90" height="40" as="geometry">
            <mxRectangle width="90" height="40" as="alternateBounds" />
          </mxGeometry>
        </mxCell>
        <mxCell id="gfy_0EfbFl2sMV1X142L-153" value="status" style="shape=partialRectangle;html=1;whiteSpace=wrap;connectable=0;strokeColor=inherit;overflow=hidden;fillColor=none;top=0;left=0;bottom=0;right=0;pointerEvents=1;fontSize=16;" parent="gfy_0EfbFl2sMV1X142L-149" vertex="1">
          <mxGeometry x="245" width="70" height="40" as="geometry">
            <mxRectangle width="70" height="40" as="alternateBounds" />
          </mxGeometry>
        </mxCell>
        <mxCell id="gfy_0EfbFl2sMV1X142L-154" value="display" style="shape=partialRectangle;html=1;whiteSpace=wrap;connectable=0;strokeColor=inherit;overflow=hidden;fillColor=none;top=0;left=0;bottom=0;right=0;pointerEvents=1;fontSize=16;" parent="gfy_0EfbFl2sMV1X142L-149" vertex="1">
          <mxGeometry x="315" width="100" height="40" as="geometry">
            <mxRectangle width="100" height="40" as="alternateBounds" />
          </mxGeometry>
        </mxCell>
        <mxCell id="gfy_0EfbFl2sMV1X142L-175" value="timestamp" style="shape=partialRectangle;html=1;whiteSpace=wrap;connectable=0;strokeColor=inherit;overflow=hidden;fillColor=none;top=0;left=0;bottom=0;right=0;pointerEvents=1;fontSize=16;" parent="gfy_0EfbFl2sMV1X142L-149" vertex="1">
          <mxGeometry x="415" width="100" height="40" as="geometry">
            <mxRectangle width="100" height="40" as="alternateBounds" />
          </mxGeometry>
        </mxCell>
        <mxCell id="gfy_0EfbFl2sMV1X142L-158" value="&lt;span style=&quot;font-size: 17px;&quot;&gt;&lt;b&gt;exercise_routine&lt;br&gt;&lt;/b&gt;&lt;/span&gt;" style="text;html=1;align=center;verticalAlign=middle;whiteSpace=wrap;rounded=0;" parent="1" vertex="1">
          <mxGeometry x="20" y="1335" width="60" height="30" as="geometry" />
        </mxCell>
        <mxCell id="gfy_0EfbFl2sMV1X142L-159" value="" style="shape=table;startSize=0;container=1;collapsible=0;childLayout=tableLayout;fontSize=16;" parent="1" vertex="1">
          <mxGeometry x="130" y="1330" width="245" height="40" as="geometry" />
        </mxCell>
        <mxCell id="gfy_0EfbFl2sMV1X142L-160" value="" style="shape=tableRow;horizontal=0;startSize=0;swimlaneHead=0;swimlaneBody=0;strokeColor=inherit;top=0;left=0;bottom=0;right=0;collapsible=0;dropTarget=0;fillColor=none;points=[[0,0.5],[1,0.5]];portConstraint=eastwest;fontSize=16;" parent="gfy_0EfbFl2sMV1X142L-159" vertex="1">
          <mxGeometry width="245" height="40" as="geometry" />
        </mxCell>
        <mxCell id="gfy_0EfbFl2sMV1X142L-161" value="member_id" style="shape=partialRectangle;html=1;whiteSpace=wrap;connectable=0;strokeColor=inherit;overflow=hidden;fillColor=none;top=0;left=0;bottom=0;right=0;pointerEvents=1;fontSize=16;" parent="gfy_0EfbFl2sMV1X142L-160" vertex="1">
          <mxGeometry width="95" height="40" as="geometry">
            <mxRectangle width="95" height="40" as="alternateBounds" />
          </mxGeometry>
        </mxCell>
        <mxCell id="gfy_0EfbFl2sMV1X142L-162" value="&lt;u&gt;id&lt;/u&gt;" style="shape=partialRectangle;html=1;whiteSpace=wrap;connectable=0;strokeColor=inherit;overflow=hidden;fillColor=none;top=0;left=0;bottom=0;right=0;pointerEvents=1;fontSize=16;" parent="gfy_0EfbFl2sMV1X142L-160" vertex="1">
          <mxGeometry x="95" width="60" height="40" as="geometry">
            <mxRectangle width="60" height="40" as="alternateBounds" />
          </mxGeometry>
        </mxCell>
        <mxCell id="gfy_0EfbFl2sMV1X142L-163" value="description" style="shape=partialRectangle;html=1;whiteSpace=wrap;connectable=0;strokeColor=inherit;overflow=hidden;fillColor=none;top=0;left=0;bottom=0;right=0;pointerEvents=1;fontSize=16;" parent="gfy_0EfbFl2sMV1X142L-160" vertex="1">
          <mxGeometry x="155" width="90" height="40" as="geometry">
            <mxRectangle width="90" height="40" as="alternateBounds" />
          </mxGeometry>
        </mxCell>
        <mxCell id="gfy_0EfbFl2sMV1X142L-166" value="" style="endArrow=classic;html=1;rounded=0;entryX=0.118;entryY=-0.1;entryDx=0;entryDy=0;entryPerimeter=0;" parent="1" target="gfy_0EfbFl2sMV1X142L-149" edge="1">
          <mxGeometry width="50" height="50" relative="1" as="geometry">
            <mxPoint x="-160" y="1270" as="sourcePoint" />
            <mxPoint x="-110" y="1220" as="targetPoint" />
          </mxGeometry>
        </mxCell>
        <mxCell id="gfy_0EfbFl2sMV1X142L-167" value="" style="endArrow=classic;html=1;rounded=0;entryX=0.237;entryY=0;entryDx=0;entryDy=0;entryPerimeter=0;" parent="1" target="gfy_0EfbFl2sMV1X142L-160" edge="1">
          <mxGeometry width="50" height="50" relative="1" as="geometry">
            <mxPoint x="-160" y="1270" as="sourcePoint" />
            <mxPoint x="-110" y="1220" as="targetPoint" />
          </mxGeometry>
        </mxCell>
        <mxCell id="gfy_0EfbFl2sMV1X142L-168" value="&lt;font style=&quot;font-size: 17px;&quot;&gt;&lt;b&gt;expertise&lt;/b&gt;&lt;/font&gt;" style="text;html=1;align=center;verticalAlign=middle;whiteSpace=wrap;rounded=0;" parent="1" vertex="1">
          <mxGeometry x="40" y="1075" width="60" height="30" as="geometry" />
        </mxCell>
        <mxCell id="gfy_0EfbFl2sMV1X142L-169" value="" style="shape=table;startSize=0;container=1;collapsible=0;childLayout=tableLayout;fontSize=16;" parent="1" vertex="1">
          <mxGeometry x="130" y="1070" width="365" height="40" as="geometry" />
        </mxCell>
        <mxCell id="gfy_0EfbFl2sMV1X142L-170" value="" style="shape=tableRow;horizontal=0;startSize=0;swimlaneHead=0;swimlaneBody=0;strokeColor=inherit;top=0;left=0;bottom=0;right=0;collapsible=0;dropTarget=0;fillColor=none;points=[[0,0.5],[1,0.5]];portConstraint=eastwest;fontSize=16;" parent="gfy_0EfbFl2sMV1X142L-169" vertex="1">
          <mxGeometry width="365" height="40" as="geometry" />
        </mxCell>
        <mxCell id="AoqOGsLSMnDh2anwQPng-31" value="&lt;u&gt;id&lt;/u&gt;" style="shape=partialRectangle;html=1;whiteSpace=wrap;connectable=0;strokeColor=inherit;overflow=hidden;fillColor=none;top=0;left=0;bottom=0;right=0;pointerEvents=1;fontSize=16;" parent="gfy_0EfbFl2sMV1X142L-170" vertex="1">
          <mxGeometry width="85" height="40" as="geometry">
            <mxRectangle width="85" height="40" as="alternateBounds" />
          </mxGeometry>
        </mxCell>
        <mxCell id="gfy_0EfbFl2sMV1X142L-171" value="trainer_id" style="shape=partialRectangle;html=1;whiteSpace=wrap;connectable=0;strokeColor=inherit;overflow=hidden;fillColor=none;top=0;left=0;bottom=0;right=0;pointerEvents=1;fontSize=16;" parent="gfy_0EfbFl2sMV1X142L-170" vertex="1">
          <mxGeometry x="85" width="85" height="40" as="geometry">
            <mxRectangle width="85" height="40" as="alternateBounds" />
          </mxGeometry>
        </mxCell>
        <mxCell id="gfy_0EfbFl2sMV1X142L-172" value="&lt;u&gt;expertise&lt;/u&gt;" style="shape=partialRectangle;html=1;whiteSpace=wrap;connectable=0;strokeColor=inherit;overflow=hidden;fillColor=none;top=0;left=0;bottom=0;right=0;pointerEvents=1;fontSize=16;" parent="gfy_0EfbFl2sMV1X142L-170" vertex="1">
          <mxGeometry x="170" width="75" height="40" as="geometry">
            <mxRectangle width="75" height="40" as="alternateBounds" />
          </mxGeometry>
        </mxCell>
        <mxCell id="gfy_0EfbFl2sMV1X142L-173" value="description" style="shape=partialRectangle;html=1;whiteSpace=wrap;connectable=0;strokeColor=inherit;overflow=hidden;fillColor=none;top=0;left=0;bottom=0;right=0;pointerEvents=1;fontSize=16;" parent="gfy_0EfbFl2sMV1X142L-170" vertex="1">
          <mxGeometry x="245" width="120" height="40" as="geometry">
            <mxRectangle width="120" height="40" as="alternateBounds" />
          </mxGeometry>
        </mxCell>
        <mxCell id="gfy_0EfbFl2sMV1X142L-174" style="edgeStyle=orthogonalEdgeStyle;rounded=0;orthogonalLoop=1;jettySize=auto;html=1;entryX=0.337;entryY=1.033;entryDx=0;entryDy=0;entryPerimeter=0;" parent="1" source="gfy_0EfbFl2sMV1X142L-92" target="gfy_0EfbFl2sMV1X142L-170" edge="1">
          <mxGeometry relative="1" as="geometry">
            <Array as="points">
              <mxPoint x="-167" y="1130" />
              <mxPoint x="253" y="1130" />
            </Array>
          </mxGeometry>
        </mxCell>
        <mxCell id="8Co_b27BZ8lsY5W0lsWr-1" value="equipment" style="swimlane;" parent="1" vertex="1">
          <mxGeometry x="-150" y="520" width="200" height="110" as="geometry" />
        </mxCell>
        <mxCell id="8Co_b27BZ8lsY5W0lsWr-2" value="&lt;div style=&quot;text-align: left;&quot;&gt;&lt;u style=&quot;font-size: 14px; background-color: initial;&quot;&gt;id&lt;/u&gt;&lt;/div&gt;&lt;div style=&quot;text-align: left;&quot;&gt;&lt;span style=&quot;font-size: 14px; background-color: initial;&quot;&gt;name&lt;/span&gt;&lt;/div&gt;&lt;div style=&quot;text-align: left;&quot;&gt;&lt;span style=&quot;font-size: 14px; background-color: initial;&quot;&gt;type&lt;/span&gt;&lt;/div&gt;&lt;font style=&quot;&quot;&gt;&lt;div style=&quot;font-size: 14px; text-align: left;&quot;&gt;maintenance_status&lt;/div&gt;&lt;/font&gt;&lt;div style=&quot;text-align: left;&quot;&gt;&lt;br&gt;&lt;/div&gt;" style="text;html=1;align=center;verticalAlign=middle;resizable=0;points=[];autosize=1;strokeColor=none;fillColor=none;" parent="8Co_b27BZ8lsY5W0lsWr-1" vertex="1">
          <mxGeometry y="20" width="150" height="100" as="geometry" />
        </mxCell>
        <mxCell id="8Co_b27BZ8lsY5W0lsWr-3" value="trainer_application" style="swimlane;" parent="1" vertex="1">
          <mxGeometry x="-440" y="200" width="200" height="130" as="geometry" />
        </mxCell>
        <mxCell id="8Co_b27BZ8lsY5W0lsWr-4" value="&lt;div style=&quot;text-align: left;&quot;&gt;&lt;u style=&quot;font-size: 14px; background-color: initial;&quot;&gt;id&lt;/u&gt;&lt;/div&gt;&lt;font style=&quot;&quot;&gt;&lt;div style=&quot;font-size: 14px; text-align: left;&quot;&gt;user_id&lt;/div&gt;&lt;div style=&quot;font-size: 14px; text-align: left;&quot;&gt;resume&lt;/div&gt;&lt;div style=&quot;font-size: 14px; text-align: left;&quot;&gt;status&lt;/div&gt;&lt;/font&gt;&lt;div style=&quot;text-align: left;&quot;&gt;&lt;font style=&quot;font-size: 14px;&quot;&gt;availability_type&lt;/font&gt;&lt;/div&gt;" style="text;html=1;align=center;verticalAlign=middle;resizable=0;points=[];autosize=1;strokeColor=none;fillColor=none;" parent="8Co_b27BZ8lsY5W0lsWr-3" vertex="1">
          <mxGeometry x="-5" y="20" width="120" height="100" as="geometry" />
        </mxCell>
        <mxCell id="8Co_b27BZ8lsY5W0lsWr-7" style="edgeStyle=orthogonalEdgeStyle;rounded=0;orthogonalLoop=1;jettySize=auto;html=1;entryX=1;entryY=0.5;entryDx=0;entryDy=0;endArrow=none;endFill=0;" parent="1" source="gfy_0EfbFl2sMV1X142L-17" target="8Co_b27BZ8lsY5W0lsWr-3" edge="1">
          <mxGeometry relative="1" as="geometry" />
        </mxCell>
        <mxCell id="8Co_b27BZ8lsY5W0lsWr-9" value="1" style="text;html=1;align=center;verticalAlign=middle;whiteSpace=wrap;rounded=0;" parent="1" vertex="1">
          <mxGeometry x="-260" y="240" width="60" height="30" as="geometry" />
        </mxCell>
        <mxCell id="8Co_b27BZ8lsY5W0lsWr-10" value="&lt;font style=&quot;font-size: 17px;&quot;&gt;&lt;b&gt;trainer_application&lt;/b&gt;&lt;/font&gt;" style="text;html=1;align=center;verticalAlign=middle;whiteSpace=wrap;rounded=0;" parent="1" vertex="1">
          <mxGeometry x="360" y="1155" width="60" height="30" as="geometry" />
        </mxCell>
        <mxCell id="8Co_b27BZ8lsY5W0lsWr-11" value="" style="shape=table;startSize=0;container=1;collapsible=0;childLayout=tableLayout;fontSize=16;" parent="1" vertex="1">
          <mxGeometry x="470" y="1150" width="340" height="40" as="geometry" />
        </mxCell>
        <mxCell id="8Co_b27BZ8lsY5W0lsWr-12" value="" style="shape=tableRow;horizontal=0;startSize=0;swimlaneHead=0;swimlaneBody=0;strokeColor=inherit;top=0;left=0;bottom=0;right=0;collapsible=0;dropTarget=0;fillColor=none;points=[[0,0.5],[1,0.5]];portConstraint=eastwest;fontSize=16;" parent="8Co_b27BZ8lsY5W0lsWr-11" vertex="1">
          <mxGeometry width="340" height="40" as="geometry" />
        </mxCell>
        <mxCell id="8Co_b27BZ8lsY5W0lsWr-13" value="&lt;u&gt;id&lt;/u&gt;" style="shape=partialRectangle;html=1;whiteSpace=wrap;connectable=0;strokeColor=inherit;overflow=hidden;fillColor=none;top=0;left=0;bottom=0;right=0;pointerEvents=1;fontSize=16;" parent="8Co_b27BZ8lsY5W0lsWr-12" vertex="1">
          <mxGeometry width="85" height="40" as="geometry">
            <mxRectangle width="85" height="40" as="alternateBounds" />
          </mxGeometry>
        </mxCell>
        <mxCell id="8Co_b27BZ8lsY5W0lsWr-14" value="user_id" style="shape=partialRectangle;html=1;whiteSpace=wrap;connectable=0;strokeColor=inherit;overflow=hidden;fillColor=none;top=0;left=0;bottom=0;right=0;pointerEvents=1;fontSize=16;" parent="8Co_b27BZ8lsY5W0lsWr-12" vertex="1">
          <mxGeometry x="85" width="75" height="40" as="geometry">
            <mxRectangle width="75" height="40" as="alternateBounds" />
          </mxGeometry>
        </mxCell>
        <mxCell id="8Co_b27BZ8lsY5W0lsWr-15" value="resume" style="shape=partialRectangle;html=1;whiteSpace=wrap;connectable=0;strokeColor=inherit;overflow=hidden;fillColor=none;top=0;left=0;bottom=0;right=0;pointerEvents=1;fontSize=16;" parent="8Co_b27BZ8lsY5W0lsWr-12" vertex="1">
          <mxGeometry x="160" width="90" height="40" as="geometry">
            <mxRectangle width="90" height="40" as="alternateBounds" />
          </mxGeometry>
        </mxCell>
        <mxCell id="8Co_b27BZ8lsY5W0lsWr-16" value="status" style="shape=partialRectangle;html=1;whiteSpace=wrap;connectable=0;strokeColor=inherit;overflow=hidden;fillColor=none;top=0;left=0;bottom=0;right=0;pointerEvents=1;fontSize=16;" parent="8Co_b27BZ8lsY5W0lsWr-12" vertex="1">
          <mxGeometry x="250" width="90" height="40" as="geometry">
            <mxRectangle width="90" height="40" as="alternateBounds" />
          </mxGeometry>
        </mxCell>
        <mxCell id="8Co_b27BZ8lsY5W0lsWr-17" value="" style="endArrow=classic;html=1;rounded=0;entryX=0.353;entryY=1.025;entryDx=0;entryDy=0;entryPerimeter=0;" parent="1" target="8Co_b27BZ8lsY5W0lsWr-12" edge="1">
          <mxGeometry width="50" height="50" relative="1" as="geometry">
            <mxPoint x="-230" y="1190" as="sourcePoint" />
            <mxPoint x="-180" y="1140" as="targetPoint" />
            <Array as="points">
              <mxPoint x="170" y="1210" />
            </Array>
          </mxGeometry>
        </mxCell>
        <mxCell id="AoqOGsLSMnDh2anwQPng-1" value="trainer_availability" style="swimlane;startSize=23;" parent="1" vertex="1">
          <mxGeometry x="-150" y="660" width="200" height="140" as="geometry" />
        </mxCell>
        <mxCell id="AoqOGsLSMnDh2anwQPng-2" value="&lt;div style=&quot;text-align: left;&quot;&gt;&lt;u style=&quot;font-size: 14px; background-color: initial;&quot;&gt;id&lt;/u&gt;&lt;/div&gt;&lt;font style=&quot;&quot;&gt;&lt;div style=&quot;font-size: 14px; text-align: left;&quot;&gt;trainer_id&lt;/div&gt;&lt;div style=&quot;font-size: 14px; text-align: left;&quot;&gt;status&lt;/div&gt;&lt;div style=&quot;font-size: 14px; text-align: left;&quot;&gt;date&lt;/div&gt;&lt;div style=&quot;font-size: 14px; text-align: left;&quot;&gt;start_time&lt;/div&gt;&lt;div style=&quot;font-size: 14px; text-align: left;&quot;&gt;end_time&lt;/div&gt;&lt;/font&gt;&lt;div style=&quot;text-align: left;&quot;&gt;&lt;br&gt;&lt;/div&gt;" style="text;html=1;align=center;verticalAlign=middle;resizable=0;points=[];autosize=1;strokeColor=none;fillColor=none;" parent="AoqOGsLSMnDh2anwQPng-1" vertex="1">
          <mxGeometry y="25" width="80" height="130" as="geometry" />
        </mxCell>
        <mxCell id="AoqOGsLSMnDh2anwQPng-4" value="&lt;font style=&quot;font-size: 17px;&quot;&gt;&lt;b&gt;trainer_availability&lt;/b&gt;&lt;/font&gt;" style="text;html=1;align=center;verticalAlign=middle;whiteSpace=wrap;rounded=0;" parent="1" vertex="1">
          <mxGeometry x="300" y="995" width="60" height="30" as="geometry" />
        </mxCell>
        <mxCell id="AoqOGsLSMnDh2anwQPng-5" value="" style="shape=table;startSize=0;container=1;collapsible=0;childLayout=tableLayout;fontSize=16;" parent="1" vertex="1">
          <mxGeometry x="410" y="990" width="590" height="40" as="geometry" />
        </mxCell>
        <mxCell id="AoqOGsLSMnDh2anwQPng-6" value="" style="shape=tableRow;horizontal=0;startSize=0;swimlaneHead=0;swimlaneBody=0;strokeColor=inherit;top=0;left=0;bottom=0;right=0;collapsible=0;dropTarget=0;fillColor=none;points=[[0,0.5],[1,0.5]];portConstraint=eastwest;" parent="AoqOGsLSMnDh2anwQPng-5" vertex="1">
          <mxGeometry width="590" height="40" as="geometry" />
        </mxCell>
        <mxCell id="AoqOGsLSMnDh2anwQPng-7" value="&lt;u&gt;id&lt;/u&gt;" style="shape=partialRectangle;html=1;whiteSpace=wrap;connectable=0;strokeColor=inherit;overflow=hidden;fillColor=none;top=0;left=0;bottom=0;right=0;pointerEvents=1;fontSize=16;" parent="AoqOGsLSMnDh2anwQPng-6" vertex="1">
          <mxGeometry width="75" height="40" as="geometry">
            <mxRectangle width="75" height="40" as="alternateBounds" />
          </mxGeometry>
        </mxCell>
        <mxCell id="AoqOGsLSMnDh2anwQPng-8" value="trainer_id" style="shape=partialRectangle;html=1;whiteSpace=wrap;connectable=0;strokeColor=inherit;overflow=hidden;fillColor=none;top=0;left=0;bottom=0;right=0;pointerEvents=1;fontSize=16;" parent="AoqOGsLSMnDh2anwQPng-6" vertex="1">
          <mxGeometry x="75" width="100" height="40" as="geometry">
            <mxRectangle width="100" height="40" as="alternateBounds" />
          </mxGeometry>
        </mxCell>
        <mxCell id="AoqOGsLSMnDh2anwQPng-9" value="status" style="shape=partialRectangle;html=1;whiteSpace=wrap;connectable=0;strokeColor=inherit;overflow=hidden;fillColor=none;top=0;left=0;bottom=0;right=0;pointerEvents=1;fontSize=16;" parent="AoqOGsLSMnDh2anwQPng-6" vertex="1">
          <mxGeometry x="175" width="115" height="40" as="geometry">
            <mxRectangle width="115" height="40" as="alternateBounds" />
          </mxGeometry>
        </mxCell>
        <mxCell id="AoqOGsLSMnDh2anwQPng-10" value="date" style="shape=partialRectangle;html=1;whiteSpace=wrap;connectable=0;strokeColor=inherit;overflow=hidden;fillColor=none;top=0;left=0;bottom=0;right=0;pointerEvents=1;fontSize=16;" parent="AoqOGsLSMnDh2anwQPng-6" vertex="1">
          <mxGeometry x="290" width="90" height="40" as="geometry">
            <mxRectangle width="90" height="40" as="alternateBounds" />
          </mxGeometry>
        </mxCell>
        <mxCell id="AoqOGsLSMnDh2anwQPng-11" value="start_time" style="shape=partialRectangle;html=1;whiteSpace=wrap;connectable=0;strokeColor=inherit;overflow=hidden;fillColor=none;top=0;left=0;bottom=0;right=0;pointerEvents=1;fontSize=16;" parent="AoqOGsLSMnDh2anwQPng-6" vertex="1">
          <mxGeometry x="380" width="100" height="40" as="geometry">
            <mxRectangle width="100" height="40" as="alternateBounds" />
          </mxGeometry>
        </mxCell>
        <mxCell id="AoqOGsLSMnDh2anwQPng-12" value="end_time" style="shape=partialRectangle;html=1;whiteSpace=wrap;connectable=0;strokeColor=inherit;overflow=hidden;fillColor=none;top=0;left=0;bottom=0;right=0;pointerEvents=1;fontSize=16;" parent="AoqOGsLSMnDh2anwQPng-6" vertex="1">
          <mxGeometry x="480" width="110" height="40" as="geometry">
            <mxRectangle width="110" height="40" as="alternateBounds" />
          </mxGeometry>
        </mxCell>
        <mxCell id="AoqOGsLSMnDh2anwQPng-13" value="" style="endArrow=classic;html=1;rounded=0;entryX=0.199;entryY=1.006;entryDx=0;entryDy=0;entryPerimeter=0;" parent="1" target="AoqOGsLSMnDh2anwQPng-6" edge="1">
          <mxGeometry width="50" height="50" relative="1" as="geometry">
            <mxPoint x="-160" y="1070" as="sourcePoint" />
            <mxPoint x="-110" y="1020" as="targetPoint" />
          </mxGeometry>
        </mxCell>
        <mxCell id="AoqOGsLSMnDh2anwQPng-14" value="" style="edgeStyle=segmentEdgeStyle;endArrow=classic;html=1;curved=0;rounded=0;endSize=8;startSize=8;exitX=0.079;exitY=0.035;exitDx=0;exitDy=0;exitPerimeter=0;entryX=0.792;entryY=0.006;entryDx=0;entryDy=0;entryPerimeter=0;" parent="1" source="AoqOGsLSMnDh2anwQPng-6" target="gfy_0EfbFl2sMV1X142L-105" edge="1">
          <mxGeometry width="50" height="50" relative="1" as="geometry">
            <mxPoint x="369.9988235294117" y="950" as="sourcePoint" />
            <mxPoint x="319.9988235294117" y="1000" as="targetPoint" />
            <Array as="points">
              <mxPoint x="450" y="991" />
              <mxPoint x="450" y="970" />
              <mxPoint x="108" y="970" />
            </Array>
          </mxGeometry>
        </mxCell>
        <mxCell id="AoqOGsLSMnDh2anwQPng-21" style="edgeStyle=orthogonalEdgeStyle;rounded=0;orthogonalLoop=1;jettySize=auto;html=1;entryX=1.02;entryY=0.381;entryDx=0;entryDy=0;entryPerimeter=0;endArrow=none;endFill=0;" parent="1" source="gfy_0EfbFl2sMV1X142L-27" target="gfy_0EfbFl2sMV1X142L-33" edge="1">
          <mxGeometry relative="1" as="geometry">
            <Array as="points">
              <mxPoint x="190" y="490" />
              <mxPoint x="190" y="531" />
            </Array>
          </mxGeometry>
        </mxCell>
        <mxCell id="AoqOGsLSMnDh2anwQPng-28" style="edgeStyle=orthogonalEdgeStyle;rounded=0;orthogonalLoop=1;jettySize=auto;html=1;entryX=0.011;entryY=0.835;entryDx=0;entryDy=0;entryPerimeter=0;endArrow=none;endFill=0;" parent="1" source="AoqOGsLSMnDh2anwQPng-1" target="gfy_0EfbFl2sMV1X142L-6" edge="1">
          <mxGeometry relative="1" as="geometry">
            <Array as="points">
              <mxPoint x="141" y="730" />
            </Array>
          </mxGeometry>
        </mxCell>
        <mxCell id="AoqOGsLSMnDh2anwQPng-29" value="1" style="text;html=1;align=center;verticalAlign=middle;whiteSpace=wrap;rounded=0;" parent="1" vertex="1">
          <mxGeometry x="100" y="700" width="60" height="30" as="geometry" />
        </mxCell>
        <mxCell id="AoqOGsLSMnDh2anwQPng-30" value="n" style="text;html=1;align=center;verticalAlign=middle;whiteSpace=wrap;rounded=0;" parent="1" vertex="1">
          <mxGeometry x="30" y="700" width="60" height="30" as="geometry" />
        </mxCell>
      </root>
    </mxGraphModel>
  </diagram>
</mxfile>
